
<!-- Generator: Adobe Illustrator 22.1.0, SVG Export Plug-In . SVG Version: 6.00 Build 0)  -->
<svg version="1.1" id="Layer_1" xmlns="http://www.w3.org/2000/svg" xmlns:xlink="http://www.w3.org/1999/xlink" x="0px" y="0px"
	 viewBox="0 0 88 88" style="enable-background:new 0 0 88 88;" xml:space="preserve">
<style type="text/css">
	.st0{fill:#23B2E7;}
	.st1{clip-path:url(#SVGID_2_);}
	.st2{fill:#1B75BC;}
	.st3{fill:#FFB0A6;}
	.st4{fill:#FFFFFF;}
	.st5{fill:#021833;}
	.st6{fill:#FBB891;}
	.st7{fill:#EAEAEA;}
	.st8{fill:#ED8B62;}
	.st9{fill:#121C36;}
	.st10{fill:#F26A32;}
	.st11{fill:#FDEEEA;}
	.st12{fill:#FFCC2C;}
	.st13{fill:#E67E5B;}
	.st14{fill:#F7941D;}
	.st15{fill:#754135;}
	.st16{fill:#D3603A;}
	.st17{fill:none;}
</style>
<g>
	<g>
		<g>
			<rect x="0" y="0" class="st0" width="88" height="88"/>
		</g>
	</g>
	<g>
		<defs>
			<rect id="SVGID_1_" x="0" y="0" width="88" height="88"/>
		</defs>
		<clipPath id="SVGID_2_">
			<use xlink:href="#SVGID_1_"  style="overflow:visible;"/>
		</clipPath>
		<g class="st1">
			<g>
				<g>
					<circle class="st2" cx="44" cy="83.6" r="44.2"/>
				</g>
			</g>
		</g>
	</g>
	<g>
		<g>
			<polygon class="st0" points="67.4,68 69.6,88 59.4,88 58.2,77.5 57.3,77.4 57.1,88 46.7,88 47.3,68 			"/>
		</g>
	</g>
	<g>
		<g>
			<path class="st2" d="M57.3,77.7c-0.2,0-0.3-0.1-0.3-0.3c0-0.2,0.1-0.3,0.3-0.4l4.9-0.8c0.2,0,0.3,0.1,0.4,0.3
				c0,0.2-0.1,0.3-0.3,0.4L57.3,77.7C57.3,77.7,57.3,77.7,57.3,77.7z"/>
		</g>
	</g>
	<g>
		<g>
			<path class="st3" d="M41.6,46.8l-8.5,8.3c-1.5,1.4-1.5,3.8-0.1,5.3l0,0c1.4,1.5,3.7,1.6,5.3,0.3l8.5-7.4L41.6,46.8z"/>
		</g>
	</g>
	<g>
		<g>
			<path class="st4" d="M39.5,47.7l6.3,7.4l5.4-4.7c2-1.7,2.2-4.8,0.5-6.8l0,0c-1.7-2-4.8-2.3-6.8-0.5L39.5,47.7z"/>
		</g>
	</g>
	<g>
		<g>
			<polygon class="st4" points="55,40.3 47,42 47.3,68 67.4,68 68,41.3 60.5,40.6 			"/>
		</g>
	</g>
	<g>
		<g>
			<path class="st5" d="M47.1,55.2c-0.1,0-0.2-0.1-0.2-0.2v-7.1c0-0.1,0.1-0.2,0.2-0.2s0.2,0.1,0.2,0.2V55
				C47.4,55.1,47.3,55.2,47.1,55.2z"/>
		</g>
	</g>
	<g>
		<g>
			<path class="st5" d="M67.8,52.2c-0.1,0-0.2-0.1-0.2-0.2v-4.8c0-0.1,0.1-0.2,0.2-0.2s0.2,0.1,0.2,0.2V52
				C68.1,52.1,68,52.2,67.8,52.2z"/>
		</g>
	</g>
	<g>
		<g>
			<polygon class="st6" points="54.6,40.4 57.7,44.5 60.8,40.6 			"/>
		</g>
	</g>
	<g>
		<g>
			<polygon class="st7" points="54.6,39.8 52.7,40.8 54.8,45 56.9,43.4 			"/>
		</g>
	</g>
	<g>
		<g>
			<polygon class="st7" points="60.8,39.8 62.9,40.8 60.7,45 58.6,43.4 			"/>
		</g>
	</g>
	<g>
		<g>
			<path class="st6" d="M69.7,49.3l10.1-1.9c2-0.4,3.3-2.4,2.9-4.4l0,0c-0.4-2.1-2.4-3.4-4.4-3c0,0-0.1,0-0.1,0L68,42.2L69.7,49.3z"
				/>
		</g>
	</g>
	<g>
		<g>
			<polygon class="st4" points="74.2,40.4 62.9,40.8 65.8,52.6 74.7,50.6 			"/>
		</g>
	</g>
	<g>
		<g>
			<polygon class="st6" points="82.6,42.5 76.8,28.3 73.9,28.5 76.5,45.2 			"/>
		</g>
	</g>
	<g>
		<g>
			<path class="st6" d="M75.3,28.8c0,0-1.8,1.2-3.4-1l-2.6-3.3c-0.2-0.3-0.1-0.7,0.1-0.9c0,0,0,0,0.1,0l0,0c0.2-0.1,0.5-0.1,0.7,0.1
				l1.7,1.3l-1.6-5.3c-0.1-0.4,0.1-0.7,0.4-0.9c0,0,0.1,0,0.1,0l0,0c0.3-0.1,0.6,0.1,0.7,0.4l1.3,3.5h0.2L72.3,19
				c0-0.4,0.2-0.7,0.6-0.7c0,0,0.1,0,0.1,0l0,0c0.3,0,0.6,0.3,0.6,0.6l1,3.7l0.2,0l-0.3-3.4c0-0.3,0.2-0.5,0.5-0.5c0,0,0,0,0,0l0,0
				c0.3,0,0.5,0.2,0.5,0.5l0.6,3.6l0.2,0l-0.2-3.2c0-0.3,0.3-0.4,0.5-0.4c0,0,0.1,0,0.1,0l0,0c0.2,0.1,0.3,0.3,0.3,0.5l0.4,3.7
				c0,0,1.1,3.7-0.5,4.7L75.3,28.8z"/>
		</g>
	</g>
	<g>
		<g>
			<path class="st6" d="M54.7,40l0.2-5.3c0.6,0.4,1.3,0.8,2.1,0.9c0.7,0.1,1.4-0.1,2-0.4l1.1-0.7l0.5,5.5l-0.7,1.1L55.4,41
				C55.4,41,54.7,40,54.7,40z"/>
		</g>
	</g>
	<g>
		<g>
			<path class="st8" d="M60.4,34.8c0,0-1.6,2.9-3.5,2.5c-2-0.4-2.1-3-2.1-3L60.4,34.8z"/>
		</g>
	</g>
	<g>
		<g>
			<path class="st6" d="M52.3,26.9c0,1.8,0.2,3.6,0.6,5.4c0.3,1.3,1.1,2.2,2.3,3l0.2,0.1c1.3,0.8,2.9,0.8,4.2,0l0,0
				c1.3-0.8,2.2-1.8,2.5-3.2c0.3-1.8,0.5-3.6,0.6-5.4c0,0,0.5-5.5-5.1-5.4C52,21.6,52.3,26.9,52.3,26.9z"/>
		</g>
	</g>
	<g>
		<g>
			<path class="st6" d="M62,32.1c1,0.8,3-2.5,2.1-3.4s-1.6,0.6-1.6,0.6l-0.2,1.1L62,31.7V32.1L62,32.1z"/>
		</g>
	</g>
	<g>
		<g>
			<path class="st8" d="M63.6,29.8c0,0-0.2-0.9-1.2,0.7"/>
		</g>
	</g>
	<g>
		<g>
			<path class="st6" d="M52.9,32.1c-1,0.8-3-2.5-2-3.4c1-0.9,1.6,0.6,1.6,0.6l0.2,1.1l0.3,1.4L52.9,32.1L52.9,32.1z"/>
		</g>
	</g>
	<g>
		<g>
			<path class="st8" d="M51.3,29.8c0,0,0.3-0.9,1.2,0.7"/>
		</g>
	</g>
	<g>
		<g>
			<path class="st4" d="M59.5,31.8h-3.8c0,0,0.3,1.1,1.9,1.1C58.4,32.9,59.1,32.5,59.5,31.8z"/>
		</g>
	</g>
	<g>
		<g>
			<path class="st9" d="M60.5,29.1c0,0-0.1,0-0.1,0c-0.3-0.2-0.8-0.2-1.1,0c-0.1,0.1-0.3,0-0.3-0.1c-0.1-0.1,0-0.3,0.1-0.3
				c0.5-0.3,1.1-0.3,1.6,0c0.1,0.1,0.2,0.2,0.1,0.3C60.7,29.1,60.6,29.1,60.5,29.1z"/>
		</g>
	</g>
	<g>
		<g>
			<path class="st9" d="M56,29.1c0,0-0.1,0-0.1,0c-0.4-0.2-0.8-0.2-1.2,0c-0.1,0.1-0.3,0-0.3-0.1c-0.1-0.1,0-0.3,0.1-0.3
				c0.5-0.3,1.1-0.3,1.7,0c0.1,0.1,0.2,0.2,0.1,0.3C56.2,29.1,56.1,29.1,56,29.1z"/>
		</g>
	</g>
	<g>
		<g>
			<path class="st9" d="M55.1,26.4c0,0,1.2-0.2,1.2,0.3c0,0,0,0.3-1,0.5c-1,0.1-1.3,0.1-1.5-0.2S54.5,26.5,55.1,26.4z"/>
		</g>
	</g>
	<g>
		<g>
			<path class="st9" d="M59.9,26.4c0,0,1.2,0,1.2,0.5c0,0,0,0.3-1.1,0.3c-1.1-0.1-1.3-0.2-1.4-0.5C58.5,26.4,59.3,26.4,59.9,26.4z"
				/>
		</g>
	</g>
	<g>
		<g>
			<polygon class="st8" points="57.7,31.2 57.5,30.8 57.8,30.6 57.6,29.8 58,29.7 58.2,30.8 			"/>
		</g>
	</g>
	<g>
		<g>
			<path class="st9" d="M62.4,29.5c0,0-1.2-3.8-0.3-6.3C62.1,23.2,64.8,24.6,62.4,29.5z"/>
		</g>
	</g>
	<g>
		<g>
			<path class="st9" d="M52.5,29.5c0,0,1.5-3.8,0.6-6.3C53.2,23.2,50.5,24.3,52.5,29.5z"/>
		</g>
	</g>
	<g>
		<g>
			<path class="st9" d="M62.5,23.8c0,0-7.4,3.8-10.3,0.8c0,0-2.3-2.4,0.2-4.2c2.6-1.8,8.5,1.4,8.5,1.4S62.3,22.1,62.5,23.8z"/>
		</g>
	</g>
	<g>
		<g>
			<path class="st10" d="M39.5,66.5v1.3C41,70,44,76.7,44.4,86c0,0,0,0.6,0,2l-10.7,0L33,80.8L31.8,88l-10.7,0
				c0.7-6.7,2.2-15.2,5.7-20.2l0.1-1.3H39.5z"/>
		</g>
	</g>
	<g>
		<g>
			<path class="st4" d="M35.6,47.2l6,1.1c0.9,0.2,1.5,1.1,1.3,2l-3.4,16.2H27l-3.8-15.9c-0.1-0.9,0.5-1.8,1.4-2l6-1.5L35.6,47.2z"/>
		</g>
	</g>
	<g>
		<g>
			<path class="st11" d="M32.9,49.7c-1.3,0-2.9-0.4-4.6-1.7c-0.2-0.1-0.2-0.4-0.1-0.6c0.1-0.2,0.4-0.2,0.6-0.1
				c1.9,1.5,3.9,1.9,5.8,1.3c1.4-0.5,2.3-1.3,2.3-1.3c0.2-0.2,0.4-0.2,0.6,0c0.2,0.2,0.2,0.4,0,0.6C37.5,47.8,35.7,49.7,32.9,49.7z"
				/>
		</g>
	</g>
	<g>
		<g>
			<path class="st11" d="M30.7,61c-0.1,0-0.2,0-0.3-0.1c-0.2-0.2-0.2-0.4,0-0.6l4.9-4.9c0.2-0.2,0.4-0.2,0.6,0
				c0.2,0.2,0.2,0.4,0,0.6L31,60.9C30.9,61,30.8,61,30.7,61z"/>
		</g>
	</g>
	<g>
		<g>
			<path class="st12" d="M26.9,48.3c-2.4-0.5-5.8-0.5-7.7,2.7c-2.1,3.5-7.2,9.5-8.5,14.5c-0.8,3.1,2.3,6.2,6,6.2
				c1.5,0,2.6-1.7,3.1-2.4c1.2-1.7,5.5-10.7,8-16.1"/>
		</g>
	</g>
	<g>
		<g>
			<path class="st13" d="M10,51.8c0,0,2.2,0.2,2.5-2.5l0.6-4.2c0-0.3-0.2-0.7-0.5-0.7c0,0,0,0-0.1,0l0,0c-0.3,0-0.5,0.1-0.6,0.4
				l-0.9,2L10,41.5c-0.1-0.4-0.4-0.6-0.8-0.5c0,0-0.1,0-0.1,0l0,0c-0.3,0.1-0.5,0.4-0.4,0.7l0.6,3.7L9,45.5l-1.1-3.7
				c-0.1-0.3-0.5-0.5-0.8-0.4c0,0-0.1,0-0.1,0.1l0,0c-0.3,0.2-0.4,0.5-0.2,0.8L7.6,46l-0.2,0.1L6,43c-0.1-0.3-0.5-0.3-0.7-0.2
				c0,0,0,0,0,0l0,0c-0.2,0.1-0.3,0.5-0.2,0.7l1.2,3.5L6.2,47l-1.4-2.9c-0.2-0.2-0.5-0.2-0.7-0.1c0,0,0,0-0.1,0.1l0,0
				c-0.1,0.2-0.1,0.4,0,0.6l1.5,3.5c0,0,0.8,3.7,2.7,3.9L10,51.8z"/>
		</g>
	</g>
	<g>
		<g>
			<polygon class="st4" points="13.6,52.8 12.3,50.3 7.8,52.2 9,55 			"/>
		</g>
	</g>
	<g>
		<g>
			<path class="st12" d="M19.7,65l-5.1-12.1c-0.5-0.8-1.5-1.2-2.4-0.7L8.9,54c-0.8,0.4-1.1,1.3-0.8,2.2l2.9,12
				c0.7,1.9,3.3,3.4,5.3,2.8l0,0C18.6,70.2,20.7,67.2,19.7,65z"/>
		</g>
	</g>
	<g>
		<g>
			<path class="st14" d="M18.3,61.7c-0.1,0-0.2,0-0.2-0.1l-2.5-5.8c0-0.1,0-0.2,0.1-0.3c0.1,0,0.2,0,0.3,0.1l2.5,5.8
				C18.5,61.5,18.4,61.7,18.3,61.7C18.3,61.7,18.3,61.7,18.3,61.7z"/>
		</g>
	</g>
	<g>
		<g>
			<path class="st12" d="M28.2,47.4c0,0,1.7,22.3,1.7,29.6l-8.3,0.3c0,0,0.5-17.7-0.3-26.7c-0.1-1,0.6-2.2,1.6-2.4
				C24.1,48,26,47.8,28.2,47.4z"/>
		</g>
	</g>
	<g>
		<g>
			<path class="st12" d="M37.4,47.4c0,0-1.5,14.9-0.8,29.3l7.6,0.8c0,0,0.1-12.7,0.1-15.2c0-0.8,2.8-0.9,2.8-0.9l0.3-10.7
				c0,0-0.6-2.5-3.8-2.9L37.4,47.4z"/>
		</g>
	</g>
	<g>
		<g>
			<circle class="st15" cx="32.9" cy="24.9" r="3"/>
		</g>
	</g>
	<g>
		<g>
			<path class="st15" d="M26.5,32.7c0,3.7,2.9,6.6,6.4,6.6c3.5,0,6.4-3,6.4-6.6s-2.9-6.2-6.4-6.2S26.5,29,26.5,32.7z"/>
		</g>
	</g>
	<g>
		<g>
			<path class="st13" d="M37.5,38.2c1,0.8,3-2.5,2.1-3.4c-0.9-0.9-1.6,0.6-1.6,0.6l-0.2,1l-0.3,1.4L37.5,38.2L37.5,38.2z"/>
		</g>
	</g>
	<g>
		<g>
			<path class="st16" d="M39.1,35.9c0,0-0.4-0.9-1.3,0.7"/>
		</g>
	</g>
	<g>
		<g>
			<path class="st4" d="M37.7,42c1.2-0.1,2-1.2,1.8-2.3c-0.1-0.8-0.7-1.5-1.5-1.8c-0.1,0-0.1-0.1-0.1-0.1l0,0c0-0.1,0.1-0.1,0.1-0.1
				c0,0,0,0,0,0c1.2,0.4,1.9,1.7,1.5,3c-0.3,0.9-1,1.5-2,1.6c-1.1,0.2-2.1-0.4-2.4-1.4c0.1,0,0.2-0.1,0.2-0.1
				C35.8,41.7,36.6,42.2,37.7,42z"/>
		</g>
	</g>
	<g>
		<g>
			<path class="st13" d="M28.5,38.2c-1,0.8-3-2.5-2-3.4c1-0.9,1.6,0.6,1.6,0.6l0.2,1.1l0.3,1.4L28.5,38.2L28.5,38.2z"/>
		</g>
	</g>
	<g>
		<g>
			<path class="st16" d="M26.8,35.9c0,0,0.4-0.9,1.3,0.7"/>
		</g>
	</g>
	<g>
		<g>
			<path class="st4" d="M28.4,42c-1.2-0.1-2-1.2-1.8-2.3c0.1-0.8,0.7-1.5,1.5-1.8c0.1,0,0.1-0.1,0.1-0.1l0,0c0-0.1-0.1-0.1-0.1-0.1
				c0,0,0,0,0,0c-1.2,0.4-1.9,1.7-1.5,3c0.3,0.9,1,1.5,2,1.6c1.1,0.2,2.1-0.4,2.5-1.4c-0.1,0-0.2-0.1-0.2-0.1
				C30.3,41.7,29.5,42.2,28.4,42z"/>
		</g>
	</g>
	<g>
		<g>
			<path class="st13" d="M30.9,40.8c0.6,0,1.1,0.1,1.7,0.2c1,0.2,1.7-0.3,1.9,0.3c0,0,0.8-0.6,0.8-0.6l0.6,6.6c0,0-2.9,1.6-5.7-0.1
				L30.9,40.8z"/>
		</g>
	</g>
	<g>
		<g>
			<path class="st16" d="M30.5,40c0.4,1.2,1.2,2.1,2.3,2.7c0.9,0.4,2,0,2.4-0.9c0.1-0.3,0.2-0.6,0.2-1l-0.2-1.5L30.5,40z"/>
		</g>
	</g>
	<g>
		<g>
			<path class="st13" d="M27.9,32.8c0,1.7,0.2,3.5,0.6,5.2c0.3,1.2,1.1,2.1,2.3,2.8L31,41c1.3,0.7,2.8,0.8,4.1,0l0,0
				c1.3-0.7,2.2-1.7,2.4-3c0.3-1.7,0.5-3.4,0.6-5.2c0,0,0.5-5.3-5-5.2C27.5,27.8,27.9,32.8,27.9,32.8z"/>
		</g>
	</g>
	<g>
		<g>
			<path class="st9" d="M34.9,35.1c0,0.3,0.2,0.5,0.5,0.5c0.3,0,0.5-0.2,0.5-0.5c0-0.3-0.2-0.5-0.5-0.5S34.9,34.9,34.9,35.1
				C34.9,35.1,34.9,35.1,34.9,35.1z"/>
		</g>
	</g>
	<g>
		<g>
			<path class="st9" d="M30.3,35.1c0,0.3,0.2,0.5,0.5,0.5c0.3,0,0.5-0.2,0.5-0.5c0-0.3-0.2-0.5-0.5-0.5
				C30.5,34.6,30.3,34.9,30.3,35.1C30.3,35.1,30.3,35.1,30.3,35.1z"/>
		</g>
	</g>
	<g>
		<g>
			<path class="st15" d="M35.5,33c0,0-1.2-0.2-1.3,0.3c0,0,0,0.3,1.1,0.5c1.1,0.1,1.4,0.1,1.5-0.2C36.9,33.2,36.1,33,35.5,33z"/>
		</g>
	</g>
	<g>
		<g>
			<path class="st15" d="M30.6,33c0,0-1.2,0-1.2,0.6c0,0,0,0.3,1.1,0.3c1.1-0.1,1.4-0.2,1.4-0.5C32,33,31.2,32.9,30.6,33z"/>
		</g>
	</g>
	<g>
		<g>
			<polygon class="st16" points="32.9,37.2 32.3,36.8 32.6,35.8 33,36 32.8,36.6 33.1,36.8 			"/>
		</g>
	</g>
	<g>
		<g>
			<path class="st4" d="M31.4,37.8h3.1c-0.2,0.7-0.9,1.2-1.6,1.1C31.6,38.9,31.4,37.8,31.4,37.8z"/>
		</g>
	</g>
	<g>
		<g>
			<path class="st15" d="M30.2,32.4h-3.4c0,0,0.3-5.5,6.6-5.1c0,0,5.2,0.1,5,5.1h-7.8l-0.2-1.3L30.2,32.4z"/>
		</g>
	</g>
	<g>
		<g>
			<line class="st17" x1="30.5" y1="31.1" x2="30.7" y2="32.4"/>
		</g>
	</g>
	<g>
		<g>
			<polygon class="st15" points="38.7,34.5 37.9,35.9 38.1,32.4 			"/>
		</g>
	</g>
	<g>
		<g>
			<polygon class="st15" points="27.2,34.5 28.1,35.9 27.9,32.4 			"/>
		</g>
	</g>
</g>
</svg>
